<?xml version="1.0" encoding="utf-8"?>
<!-- Generator: Adobe Illustrator 22.1.0, SVG Export Plug-In . SVG Version: 6.00 Build 0)  -->
<!DOCTYPE svg PUBLIC "-//W3C//DTD SVG 1.1//EN" "http://www.w3.org/Graphics/SVG/1.1/DTD/svg11.dtd">
<svg version="1.1" id="Layer_1" xmlns="http://www.w3.org/2000/svg" xmlns:xlink="http://www.w3.org/1999/xlink" x="0px" y="0px"
	 width="1964px" height="1962px" viewBox="0 0 1964 1962" style="enable-background:new 0 0 1964 1962;" xml:space="preserve">
<style type="text/css">
	.st0{fill:#202A3A;}
	.st1{fill:#EB524F;}
</style>
<title>udemy</title>
<circle class="st0" cx="984.3" cy="990.5" r="956"/>
<path class="st1" d="M737.9,365.5c68.6,21.3,89.9,76.3,89.9,139c-0.6,49.7-6.5,99.3-18.3,147.8c-25.4,110.6-56.8,220-82.8,330
	c-21.3,90.5-40.8,182.1-41.4,275.6c0.6,25.4,4.7,50.9,11.8,75.1c13.6,48.5,54.4,52,85.1,22.5c19.5-18.9,37.3-39,53.2-60.9
	c76.9-102.3,144.9-211.1,202.8-325.2c56.2-109.4,184.5-356.6,192.2-371.3c40.2-73.9,151.4-61.5,185.1,10.6
	c18.9,39,29.6,82.2,31.3,125.4c3,93.4,11.8,354.2,16,391.5c7.7,72.1,53.8,95.2,115.3,55c37.3-24.2,71-55,104.7-84
	c31.3-27.8,47.9-24.8,63.3,14.2c13.6,34.3,7.7,68.6-3.5,101.1c-37.8,110-120,168.5-229.4,192.2c-34.9,7.7-71,8.3-106.4,2.4
	c-78.6-13-128.9-58.5-159.1-128.9c-29-68-37.8-261.4-44.3-286.2c-10.6,22.5-136.6,282.1-202.8,380.8
	c-41.4,63.3-91.7,120.6-149.6,169.7c-57.4,47.9-122.4,77.5-198.7,79.2c-92.2,2.4-159.1-39.6-205.2-117.7
	c-29.6-50.3-42-106.4-46.1-164.4c-5.9-81,7.1-160.2,24.8-239.5c5.9-25.4,10.1-51.4,16.6-84c-25.4,13-42,24.8-60.9,31.3
	c-22.5,7.7-46.7,15.4-70.4,14.8c-84-2.4-96.4-95.2-96.4-110.6c28.4-21.9,58.5-42,84.6-65.6c124.2-112.4,217.6-247.2,285-399.7
	c22.5-50.3,50.3-93.4,99.9-120C700.7,358.4,715.5,357.8,737.9,365.5z"/>
</svg>
